<?xml version="1.0" encoding="UTF-8"?>
<svg id="Layer_1" data-name="Layer 1" xmlns="http://www.w3.org/2000/svg" viewBox="0 0 1080 1080">
  <polygon points="290.69 546.09 294.37 555.24 231.5 585.4 223.57 594.56 333.77 543.43 313.58 546.87 289.79 494.6 306.88 452.39 384.95 601.48 339.38 602.15 319.61 563.29 182.91 630.96 273.38 449.04 304.54 449.04 257.3 554.57 241.13 568.56 290.69 546.09"/>
  <g>
    <g>
      <path d="M402,547.49l36.01-98.45h25.32l35.72,98.45h-22.64l-7.59-21.52h-37.41l-7.59,21.52h-21.8ZM437.02,508.95h26.02l-13.08-37.41-12.94,37.41Z"/>
      <path d="M482.31,449.04h22.36l23.63,72.85,24.19-72.85h21.8l-33.33,98.45h-25.18l-33.47-98.45Z"/>
      <path d="M577.67,449.04h21.1v57.1c0,15.61,5.77,24.05,19.27,24.05s19.41-8.44,19.41-24.05v-57.1h21.1v55.98c0,27.99-13.92,43.32-40.51,43.32s-40.37-15.33-40.37-43.32v-55.98Z"/>
      <path d="M670.36,547.49v-98.45h21.1v80.31h39.1v18.14h-60.2Z"/>
      <path d="M737.45,449.04h66.1v18.14h-45.01v22.08h36.57v17.3h-36.57v22.78h46.55v18.14h-67.65v-98.45Z"/>
      <path d="M838.44,497.14l-30.52-48.1h25.03l19.13,31.22,19.83-31.22h23.63l-30.52,47.82,32.07,50.63h-25.18l-20.67-33.76-21.38,33.76h-23.49l32.07-50.35Z"/>
    </g>
    <g>
      <path d="M483.54,577.43h19.16v2.83h-8.04v21.95h-3.08v-21.95h-8.04v-2.83Z"/>
      <path d="M512.89,577.43h15.79v2.83h-12.71v7.93h10.59v2.83h-10.59v8.36h13.17v2.83h-16.25v-24.79Z"/>
      <path d="M537.95,589.83c0-7.51,4.64-12.61,11.83-12.61,5.49,0,9.49,3.19,10.41,8.32h-3.26c-.96-3.43-3.58-5.49-7.29-5.49-5.21,0-8.53,4.04-8.53,9.77s3.19,9.77,8.39,9.77c3.82,0,6.48-2.02,7.4-5.49h3.26c-.92,5.13-5.03,8.32-10.62,8.32-7.12,0-11.58-5.03-11.58-12.61Z"/>
      <path d="M570.95,577.43h3.08v10.76h12.82v-10.76h3.08v24.79h-3.08v-11.19h-12.82v11.19h-3.08v-24.79Z"/>
      <path d="M601.82,602.22v-24.79h2.83l13.31,19.12v-19.12h3.01v24.79h-2.83l-13.31-19.12v19.12h-3.01Z"/>
      <path d="M643.77,602.43c-6.97,0-11.83-5.31-11.83-12.61s4.85-12.61,11.83-12.61,11.83,5.31,11.83,12.61-4.85,12.61-11.83,12.61ZM643.77,599.6c5.17,0,8.68-4.07,8.68-9.77s-3.51-9.77-8.68-9.77-8.67,4.07-8.67,9.77,3.51,9.77,8.67,9.77Z"/>
      <path d="M666.57,602.22v-24.79h3.08v21.95h11.3v2.83h-14.38Z"/>
      <path d="M699.92,602.43c-6.97,0-11.83-5.31-11.83-12.61s4.85-12.61,11.83-12.61,11.83,5.31,11.83,12.61-4.85,12.61-11.83,12.61ZM699.92,599.6c5.17,0,8.68-4.07,8.68-9.77s-3.51-9.77-8.68-9.77-8.67,4.07-8.67,9.77,3.51,9.77,8.67,9.77Z"/>
      <path d="M721.8,589.83c0-7.51,4.64-12.61,11.83-12.61,5.49,0,9.63,3.19,10.48,8.29h-3.29c-.85-3.43-3.51-5.45-7.26-5.45-5.21,0-8.6,4.04-8.6,9.77s3.4,9.77,8.53,9.77c4.57,0,7.86-2.73,7.86-7.12v-.85h-7.44v-2.83h10.45v13.42h-2.66l-.21-3.61c-1.13,1.81-3.79,3.82-8.04,3.82-6.87,0-11.65-5.1-11.65-12.61Z"/>
      <path d="M756.24,577.43h3.08v24.79h-3.08v-24.79Z"/>
      <path d="M771.22,577.43h15.79v2.83h-12.71v7.93h10.59v2.83h-10.59v8.36h13.17v2.83h-16.25v-24.79Z"/>
      <path d="M800.21,594.11c.25,3.33,2.83,5.52,6.62,5.52,3.33,0,5.7-1.52,5.7-4.21,0-3.08-3.05-3.72-6.8-4.36-4-.67-8.11-1.98-8.11-6.8,0-4.21,3.44-7.05,8.46-7.05,5.52,0,8.92,3.08,9.21,7.54h-3.19c-.35-2.87-2.66-4.74-6.02-4.74s-5.38,1.42-5.38,4.07c0,2.97,3.01,3.58,6.73,4.21,4.04.67,8.18,2.02,8.18,6.83,0,4.28-3.61,7.29-8.82,7.29-6.05,0-9.6-3.43-9.77-8.32h3.19Z"/>
    </g>
  </g>
</svg>